<svg width="44" height="45" viewBox="0 0 44 45" fill="none" xmlns="http://www.w3.org/2000/svg">
<circle cx="22" cy="22.0616" r="22" fill="#FFF4E6"/>
<path d="M11.4488 28.733L11.4488 28.7333C11.4495 29.4301 11.7267 30.0982 12.2194 30.5909C12.7121 31.0836 13.3802 31.3608 14.077 31.3616H14.0773L29.9226 31.3616L29.923 31.3616C30.6198 31.3608 31.2878 31.0836 31.7805 30.5909C32.2733 30.0982 32.5504 29.4301 32.5512 28.7333V28.733V26.4741C32.8849 26.3124 33.1677 26.0591 33.3652 25.7419C33.6011 25.3632 33.7016 24.9157 33.6504 24.4726C33.5992 24.0294 33.3992 23.6166 33.0832 23.3017C32.834 23.0534 32.5243 22.8775 32.1872 22.7899C32.3557 16.7761 27.352 12.2974 21.3903 12.8001C20.0803 12.8078 18.7855 13.0824 17.585 13.6072C16.3808 14.1336 15.2969 14.9005 14.3999 15.861C13.5029 16.8214 12.8116 17.9551 12.3686 19.1923C11.9555 20.3462 11.7663 21.5674 11.8104 22.7906C11.4742 22.8785 11.1654 23.0541 10.9169 23.3018C10.6009 23.6167 10.401 24.0294 10.3498 24.4726C10.2985 24.9157 10.3991 25.3632 10.6349 25.7418C10.8324 26.059 11.1152 26.3123 11.4488 26.4741L11.4488 28.733ZM30.7484 22.6794L13.2653 22.6794L13.2653 22.3819C13.2653 22.3818 13.2653 22.3816 13.2653 22.3814C13.281 17.3475 17.6204 13.7854 22.5684 14.2411L22.5815 14.2423L22.5945 14.2423C23.7116 14.2475 24.8158 14.481 25.8393 14.9285C26.8628 15.3759 27.784 16.0279 28.5464 16.8443C29.3088 17.6608 29.8962 18.6245 30.2726 19.6762C30.6174 20.6396 30.7785 21.6583 30.7484 22.6794ZM32.229 24.704L32.2284 24.713L32.2284 24.7221C32.2283 24.856 32.1751 24.9843 32.0805 25.079C31.9858 25.1737 31.8575 25.227 31.7236 25.2272H12.2816C12.1452 25.2216 12.016 25.1638 11.921 25.0655C11.8249 24.9663 11.7712 24.8335 11.7712 24.6954C11.7712 24.5572 11.8249 24.4245 11.921 24.3252C12.016 24.227 12.1452 24.1692 12.2816 24.1636H31.7233C31.7924 24.164 31.8608 24.1784 31.9241 24.206C31.9877 24.2337 32.0449 24.2741 32.0923 24.3247C32.1397 24.3753 32.1763 24.435 32.1998 24.5003C32.2233 24.5655 32.2332 24.6348 32.229 24.704ZM31.1089 28.7327C31.1086 29.0473 30.9835 29.3489 30.761 29.5714C30.5386 29.7939 30.2369 29.919 29.9223 29.9193H14.0777C13.763 29.919 13.4614 29.7939 13.2389 29.5714C13.0165 29.3489 12.8914 29.0473 12.891 28.7327V26.7114H31.1089V28.7327Z" fill="#E8590C" stroke="#E8590C" stroke-width="0.6"/>
</svg>
