<svg width="44" height="45" viewBox="0 0 44 45" fill="none" xmlns="http://www.w3.org/2000/svg">
<circle cx="22" cy="22.0616" r="22" fill="#FFF4E6"/>
<path d="M16 31.0616V29.0616C16 28.0007 16.4214 26.9833 17.1716 26.2332C17.9217 25.483 18.9391 25.0616 20 25.0616H24C25.0609 25.0616 26.0783 25.483 26.8284 26.2332C27.5786 26.9833 28 28.0007 28 29.0616V31.0616M26 17.0616C26 19.2707 24.2091 21.0616 22 21.0616C19.7909 21.0616 18 19.2707 18 17.0616C18 14.8524 19.7909 13.0616 22 13.0616C24.2091 13.0616 26 14.8524 26 17.0616Z" stroke="#E8590C" stroke-width="2" stroke-linecap="round" stroke-linejoin="round"/>
</svg>
