<svg width="138" height="48" viewBox="0 0 138 48" fill="none" xmlns="http://www.w3.org/2000/svg">
<path d="M1.74291 13.0369H1.74293H31.46C31.4601 13.0369 31.4601 13.0369 31.4601 13.0369C31.5773 13.0369 31.6935 13.0138 31.8018 12.9689C31.9101 12.9241 32.0086 12.8583 32.0915 12.7754C32.1744 12.6925 32.2402 12.594 32.2851 12.4857L32.1465 12.4283L32.2851 12.4856C32.33 12.3773 32.353 12.2612 32.353 12.1439V12.1438C32.3497 9.14949 31.1587 6.27881 29.0415 4.16154C26.9242 2.04427 24.0535 0.853328 21.0592 0.85H21.0591L12.1439 0.85L12.1438 0.85C9.14951 0.853388 6.27886 2.04435 4.16161 4.16161C2.04435 6.27886 0.853388 9.14951 0.85 12.1438L0.85 12.1439C0.850024 12.3808 0.944106 12.6079 1.11155 12.7753C1.279 12.9428 1.50611 13.0368 1.74291 13.0369ZM12.1441 2.63586H21.0589C23.4532 2.63879 25.7585 3.54371 27.5155 5.1703C29.2327 6.7601 30.3029 8.92522 30.5252 11.251H2.67777C2.90007 8.92522 3.97027 6.7601 5.6875 5.1703C7.44448 3.54371 9.7498 2.63879 12.1441 2.63586Z" fill="#E8590C" stroke="#E8590C" stroke-width="0.3"/>
<path d="M1.74293 35.0247H1.74291C1.5061 35.0248 1.279 35.1189 1.11156 35.2863C0.944109 35.4537 0.850026 35.6808 0.85 35.9177V35.9177L0.85 38.8894L0.85 38.8896C0.852499 41.0959 1.73009 43.2112 3.29023 44.7714C4.85038 46.3315 6.96567 47.2091 9.17205 47.2116H9.17222L24.0308 47.2116L24.031 47.2116C26.2373 47.2091 28.3526 46.3315 29.9128 44.7714C31.4729 43.2112 32.3505 41.0959 32.353 38.8896V38.8894V35.9177C32.353 35.9177 32.353 35.9177 32.353 35.9177C32.353 35.8004 32.3299 35.6843 32.2851 35.576C32.2402 35.4676 32.1744 35.3692 32.0915 35.2862C32.0086 35.2033 31.9101 35.1375 31.8018 35.0927C31.6935 35.0478 31.5773 35.0247 31.4601 35.0247C31.4601 35.0247 31.4601 35.0247 31.46 35.0247H1.74293ZM30.5672 38.8892C30.5652 40.6222 29.8759 42.2837 28.6505 43.5091C27.4251 44.7345 25.7636 45.4238 24.0306 45.4257H9.17239C7.43941 45.4237 5.77799 44.7344 4.55259 43.509C3.32721 42.2836 2.6379 40.6223 2.63586 38.8893C2.63586 38.8893 2.63586 38.8892 2.63586 38.8892L2.63586 36.8106H30.5672V38.8892Z" fill="#E8590C" stroke="#E8590C" stroke-width="0.3"/>
<path d="M29.1137 21.0543L29.1137 21.0543L29.1109 21.0564C28.7172 21.355 28.2367 21.5166 27.7426 21.5167C27.2485 21.5168 26.7679 21.3552 26.3741 21.0567L26.3742 21.0567L26.3705 21.0541C25.6856 20.5661 24.8656 20.3039 24.0246 20.3039C23.1837 20.3039 22.3636 20.5661 21.6787 21.0541L21.6787 21.054L21.675 21.0568C21.2824 21.3552 20.8028 21.5168 20.3096 21.5168C19.8165 21.5168 19.3369 21.3552 18.9443 21.0568L18.9443 21.0568L18.9406 21.0541C18.2563 20.5662 17.4368 20.3039 16.5963 20.3039C15.7558 20.3039 14.9362 20.5662 14.2519 21.0541L14.2519 21.0541L14.2482 21.0568C13.8555 21.3552 13.3759 21.5168 12.8827 21.5168C12.3895 21.5168 11.9099 21.3552 11.5172 21.0568L11.5172 21.0568L11.5135 21.0541C10.8293 20.5661 10.0098 20.3038 9.16932 20.3038C8.32887 20.3038 7.50937 20.5661 6.82513 21.0541L6.82509 21.0541L6.82146 21.0568C6.42884 21.3552 5.94927 21.5168 5.45612 21.5168C4.96297 21.5168 4.4834 21.3552 4.09079 21.0568L4.09081 21.0568L4.08801 21.0548C3.40638 20.5611 2.58317 20.3015 1.74167 20.3149C1.50531 20.3152 1.27869 20.4093 1.11153 20.5764C0.944076 20.7439 0.85 20.971 0.85 21.2078C0.85 21.4446 0.944076 21.6718 1.11153 21.8392C1.27899 22.0067 1.50611 22.1008 1.74293 22.1008V22.1008L1.74666 22.1007C2.23797 22.0885 2.7185 22.2459 3.10733 22.5465L3.10726 22.5466L3.11197 22.5499C3.79619 23.0379 4.61568 23.3003 5.45612 23.3003C6.29657 23.3003 7.11605 23.0379 7.80028 22.5499L7.80032 22.55L7.80394 22.5472C8.19657 22.2488 8.67616 22.0872 9.16932 22.0872C9.66248 22.0872 10.1421 22.2488 10.5347 22.5472L10.5347 22.5473L10.5384 22.5499C11.2227 23.0379 12.0422 23.3002 12.8827 23.3002C13.7232 23.3002 14.5427 23.0379 15.227 22.5499L15.2271 22.55L15.2307 22.5472C15.6234 22.2488 16.103 22.0872 16.5962 22.0872C17.0894 22.0872 17.5691 22.2488 17.9618 22.5472L17.9617 22.5473L17.9654 22.5499C18.6497 23.0379 19.4692 23.3002 20.3096 23.3002C21.1501 23.3002 21.9696 23.0379 22.6538 22.5499L22.6538 22.55L22.6574 22.5473C23.0507 22.2488 23.5309 22.0872 24.0246 22.0872C24.5184 22.0872 24.9986 22.2488 25.3919 22.5473L25.3918 22.5473L25.3955 22.55C26.0807 23.0379 26.901 23.3001 27.7422 23.3001C28.5833 23.3001 29.4036 23.0379 30.0888 22.55L30.0889 22.5501L30.0935 22.5465C30.483 22.2457 30.9643 22.0883 31.4563 22.1007V22.1008H31.4601C31.6969 22.1008 31.924 22.0067 32.0915 21.8392C32.2589 21.6718 32.353 21.4446 32.353 21.2078C32.353 20.971 32.2589 20.7439 32.0915 20.5764C31.9243 20.4093 31.6977 20.3152 31.4613 20.3149C30.6195 20.3016 29.7959 20.561 29.1137 21.0543Z" fill="black" stroke="black" stroke-width="0.3"/>
<path d="M27.7458 32.053H27.7454H5.45757C4.70921 32.053 3.99149 31.7557 3.46232 31.2266C2.93314 30.6974 2.63586 29.9797 2.63586 29.2313C2.63586 28.483 2.93314 27.7652 3.46232 27.2361C3.99149 26.7069 4.70921 26.4096 5.45757 26.4096H17.0141L21.9641 30.6522L21.9642 30.6523C22.1259 30.7908 22.3319 30.867 22.5449 30.867C22.7579 30.867 22.9639 30.7908 23.1257 30.6523L23.1258 30.6522L28.0405 26.4396C28.7421 26.5116 29.392 26.8447 29.8604 27.3739C30.3424 27.9187 30.5948 28.6289 30.5647 29.3556C30.5345 30.0824 30.2241 30.7692 29.6986 31.2721C29.173 31.775 28.4732 32.0549 27.7458 32.053ZM27.7454 24.6237H5.45757C4.23557 24.6237 3.06361 25.1092 2.19953 25.9733C1.33544 26.8374 0.85 28.0093 0.85 29.2313C0.85 30.4533 1.33544 31.6253 2.19953 32.4894C3.06361 33.3534 4.23557 33.8389 5.45757 33.8389H27.7454C28.9674 33.8389 30.1394 33.3534 31.0035 32.4894C31.8676 31.6253 32.353 30.4533 32.353 29.2313C32.353 28.0093 31.8676 26.8374 31.0035 25.9733C30.1394 25.1092 28.9674 24.6237 27.7454 24.6237ZM22.5449 28.7983L19.7581 26.4096H25.3317L22.5449 28.7983Z" fill="black" stroke="black" stroke-width="0.3"/>
<path d="M29.9742 14.2227H3.22879C2.59789 14.2227 1.99284 14.4733 1.54673 14.9194C1.10062 15.3655 0.85 15.9706 0.85 16.6015C0.85 17.2324 1.10062 17.8374 1.54673 18.2835C1.99284 18.7296 2.59789 18.9803 3.22879 18.9803H29.9742C30.6051 18.9803 31.2102 18.7296 31.6563 18.2835C32.1024 17.8374 32.353 17.2324 32.353 16.6015C32.353 15.9706 32.1024 15.3655 31.6563 14.9194C31.2102 14.4733 30.6051 14.2227 29.9742 14.2227ZM29.9742 17.1944H3.22879C3.07153 17.1944 2.92072 17.1319 2.80952 17.0207C2.69833 16.9095 2.63586 16.7587 2.63586 16.6015C2.63586 16.4442 2.69833 16.2934 2.80952 16.1822C2.92072 16.071 3.07153 16.0085 3.22879 16.0085H29.9742C30.1315 16.0085 30.2823 16.071 30.3935 16.1822C30.5047 16.2934 30.5672 16.4442 30.5672 16.6015C30.5672 16.7587 30.5047 16.9095 30.3935 17.0207C30.2823 17.1319 30.1315 17.1944 29.9742 17.1944Z" fill="black" stroke="black" stroke-width="0.3"/>
<path d="M46.114 18.5938C45.194 18.5938 44.343 18.4251 43.561 18.0878C42.7943 17.7351 42.1733 17.1601 41.698 16.3628C41.238 15.5501 41.008 14.4921 41.008 13.1888C41.008 11.9774 41.2457 10.9654 41.721 10.1528C42.2117 9.32476 42.894 8.70376 43.768 8.28976C44.642 7.86043 45.654 7.64576 46.804 7.64576C47.632 7.64576 48.3987 7.76076 49.104 7.99076C49.8093 8.20543 50.3613 8.44309 50.76 8.70376C51.0513 8.88776 51.2813 9.11009 51.45 9.37076C51.6187 9.61609 51.703 9.93043 51.703 10.3138V17.5128H48.437V10.7048C48.253 10.5974 48.0383 10.5131 47.793 10.4518C47.563 10.3751 47.2717 10.3368 46.919 10.3368C46.1677 10.3368 45.5543 10.5668 45.079 11.0268C44.619 11.4868 44.389 12.2074 44.389 13.1888C44.389 14.2621 44.6113 15.0058 45.056 15.4198C45.5007 15.8338 46.0527 16.0408 46.712 16.0408C47.218 16.0408 47.6397 15.9488 47.977 15.7648C48.3143 15.5808 48.6057 15.3814 48.851 15.1668L48.966 17.8808C48.644 18.0801 48.2453 18.2488 47.77 18.3868C47.31 18.5248 46.758 18.5938 46.114 18.5938ZM48.483 18.9158V16.7768H51.703V19.0308C51.703 20.0888 51.45 20.9551 50.944 21.6298C50.4533 22.3044 49.7787 22.8028 48.92 23.1248C48.0767 23.4468 47.126 23.6078 46.068 23.6078C45.2707 23.6078 44.5653 23.5388 43.952 23.4008C43.3387 23.2628 42.8633 23.0864 42.526 22.8718C42.0047 22.5344 41.744 22.0591 41.744 21.4458C41.744 21.1238 41.8053 20.8324 41.928 20.5718C42.066 20.3264 42.227 20.1424 42.411 20.0198C42.825 20.2651 43.3157 20.4721 43.883 20.6408C44.4503 20.8248 45.0483 20.9168 45.677 20.9168C46.5357 20.9168 47.218 20.7558 47.724 20.4338C48.23 20.1271 48.483 19.6211 48.483 18.9158ZM54.3622 14.7298V13.0738H57.7432V14.7068C57.7432 15.4121 57.9272 15.9258 58.2952 16.2478C58.6632 16.5544 59.1769 16.7078 59.8362 16.7078C60.2502 16.7078 60.5952 16.6694 60.8712 16.5928C61.1625 16.5161 61.3772 16.4318 61.5152 16.3398V13.0738H64.8962V16.7538C64.8962 17.1218 64.8272 17.4361 64.6892 17.6968C64.5512 17.9574 64.3212 18.1874 63.9992 18.3868C63.5085 18.6934 62.9029 18.9311 62.1822 19.0998C61.4769 19.2838 60.6872 19.3758 59.8132 19.3758C58.7245 19.3758 57.7662 19.2148 56.9382 18.8928C56.1255 18.5708 55.4892 18.0724 55.0292 17.3978C54.5845 16.7078 54.3622 15.8184 54.3622 14.7298ZM64.8962 14.1088H61.5152V8.03676C61.6532 7.99076 61.8602 7.94476 62.1362 7.89876C62.4122 7.85276 62.7112 7.82976 63.0332 7.82976C63.6925 7.82976 64.1679 7.94476 64.4592 8.17476C64.7505 8.38943 64.8962 8.81109 64.8962 9.43976V14.1088ZM57.7432 14.1088H54.3622V8.03676C54.5002 7.99076 54.7072 7.94476 54.9832 7.89876C55.2592 7.85276 55.5582 7.82976 55.8802 7.82976C56.5395 7.82976 57.0149 7.94476 57.3062 8.17476C57.5975 8.38943 57.7432 8.81109 57.7432 9.43976V14.1088ZM76.5162 15.8108C76.5162 16.9301 76.0946 17.8118 75.2512 18.4558C74.4079 19.0844 73.1812 19.3988 71.5712 19.3988C70.3139 19.3988 69.2789 19.2148 68.4662 18.8468C67.6536 18.4634 67.2472 17.9191 67.2472 17.2138C67.2472 16.8918 67.3162 16.6158 67.4542 16.3858C67.5922 16.1404 67.7686 15.9488 67.9832 15.8108C68.4126 16.0714 68.9109 16.3014 69.4782 16.5008C70.0609 16.7001 70.7202 16.7998 71.4562 16.7998C72.5909 16.7998 73.1582 16.4778 73.1582 15.8338C73.1582 15.5578 73.0509 15.3431 72.8362 15.1898C72.6369 15.0211 72.3149 14.8908 71.8702 14.7988L70.8582 14.5688C69.6469 14.3234 68.7346 13.9324 68.1212 13.3958C67.5232 12.8438 67.2242 12.0924 67.2242 11.1418C67.2242 10.0684 67.6536 9.21743 68.5122 8.58876C69.3862 7.96009 70.5592 7.64576 72.0312 7.64576C72.7672 7.64576 73.4342 7.72243 74.0322 7.87576C74.6302 8.01376 75.1056 8.22843 75.4582 8.51976C75.8109 8.81109 75.9872 9.17909 75.9872 9.62376C75.9872 9.91509 75.9259 10.1834 75.8032 10.4288C75.6806 10.6588 75.5272 10.8428 75.3432 10.9808C75.1592 10.8734 74.8986 10.7661 74.5612 10.6588C74.2239 10.5361 73.8482 10.4364 73.4342 10.3598C73.0356 10.2678 72.6599 10.2218 72.3072 10.2218C71.7552 10.2218 71.3182 10.2984 70.9962 10.4518C70.6896 10.6051 70.5362 10.8351 70.5362 11.1418C70.5362 11.3411 70.6206 11.5174 70.7892 11.6708C70.9732 11.8088 71.2952 11.9314 71.7552 12.0388L72.6752 12.2458C74.0399 12.5678 75.0212 13.0201 75.6192 13.6028C76.2172 14.1701 76.5162 14.9061 76.5162 15.8108ZM78.6885 12.9588H82.0465V15.4198C82.0465 15.8644 82.1845 16.1864 82.4605 16.3858C82.7365 16.5698 83.1198 16.6618 83.6105 16.6618C83.8558 16.6618 84.1088 16.6388 84.3695 16.5928C84.6301 16.5468 84.8601 16.4854 85.0595 16.4088C85.1821 16.5468 85.2895 16.7154 85.3815 16.9148C85.4735 17.0988 85.5195 17.3211 85.5195 17.5818C85.5195 18.1031 85.3048 18.5324 84.8755 18.8698C84.4615 19.1918 83.7485 19.3528 82.7365 19.3528C81.4638 19.3528 80.4671 19.0691 79.7465 18.5018C79.0411 17.9191 78.6885 16.9684 78.6885 15.6498V12.9588ZM80.8045 10.8658V8.24376H85.2435C85.3201 8.36643 85.3968 8.54276 85.4735 8.77276C85.5501 9.00276 85.5885 9.25576 85.5885 9.53176C85.5885 9.99176 85.4811 10.3291 85.2665 10.5438C85.0671 10.7584 84.7911 10.8658 84.4385 10.8658H80.8045ZM82.0465 13.5338H78.6885V5.27676C78.8265 5.23076 79.0335 5.18476 79.3095 5.13876C79.5855 5.07743 79.8768 5.04676 80.1835 5.04676C80.8275 5.04676 81.2951 5.16176 81.5865 5.39176C81.8931 5.62176 82.0465 6.03576 82.0465 6.63376V13.5338ZM98.6016 13.5108C98.6016 14.7068 98.364 15.7494 97.8886 16.6388C97.4133 17.5128 96.7386 18.1874 95.8646 18.6628C94.9906 19.1381 93.9633 19.3758 92.7826 19.3758C91.602 19.3758 90.5746 19.1458 89.7006 18.6858C88.8266 18.2104 88.152 17.5358 87.6766 16.6618C87.2013 15.7724 86.9636 14.7221 86.9636 13.5108C86.9636 12.3148 87.2013 11.2798 87.6766 10.4058C88.1673 9.53176 88.8496 8.85709 89.7236 8.38176C90.613 7.89109 91.6326 7.64576 92.7826 7.64576C93.948 7.64576 94.9676 7.89109 95.8416 8.38176C96.7156 8.85709 97.3903 9.53943 97.8656 10.4288C98.3563 11.3028 98.6016 12.3301 98.6016 13.5108ZM92.7826 10.3368C92.062 10.3368 91.487 10.6128 91.0576 11.1648C90.6436 11.7168 90.4366 12.4988 90.4366 13.5108C90.4366 14.5381 90.6436 15.3278 91.0576 15.8798C91.4716 16.4318 92.0466 16.7078 92.7826 16.7078C93.534 16.7078 94.109 16.4318 94.5076 15.8798C94.9216 15.3124 95.1286 14.5228 95.1286 13.5108C95.1286 12.5141 94.9216 11.7398 94.5076 11.1878C94.0936 10.6204 93.5186 10.3368 92.7826 10.3368ZM109.713 15.8108C109.713 16.9301 109.292 17.8118 108.448 18.4558C107.605 19.0844 106.378 19.3988 104.768 19.3988C103.511 19.3988 102.476 19.2148 101.663 18.8468C100.851 18.4634 100.444 17.9191 100.444 17.2138C100.444 16.8918 100.513 16.6158 100.651 16.3858C100.789 16.1404 100.966 15.9488 101.18 15.8108C101.61 16.0714 102.108 16.3014 102.675 16.5008C103.258 16.7001 103.917 16.7998 104.653 16.7998C105.788 16.7998 106.355 16.4778 106.355 15.8338C106.355 15.5578 106.248 15.3431 106.033 15.1898C105.834 15.0211 105.512 14.8908 105.067 14.7988L104.055 14.5688C102.844 14.3234 101.932 13.9324 101.318 13.3958C100.72 12.8438 100.421 12.0924 100.421 11.1418C100.421 10.0684 100.851 9.21743 101.709 8.58876C102.583 7.96009 103.756 7.64576 105.228 7.64576C105.964 7.64576 106.631 7.72243 107.229 7.87576C107.827 8.01376 108.303 8.22843 108.655 8.51976C109.008 8.81109 109.184 9.17909 109.184 9.62376C109.184 9.91509 109.123 10.1834 109 10.4288C108.878 10.6588 108.724 10.8428 108.54 10.9808C108.356 10.8734 108.096 10.7661 107.758 10.6588C107.421 10.5361 107.045 10.4364 106.631 10.3598C106.233 10.2678 105.857 10.2218 105.504 10.2218C104.952 10.2218 104.515 10.2984 104.193 10.4518C103.887 10.6051 103.733 10.8351 103.733 11.1418C103.733 11.3411 103.818 11.5174 103.986 11.6708C104.17 11.8088 104.492 11.9314 104.952 12.0388L105.872 12.2458C107.237 12.5678 108.218 13.0201 108.816 13.6028C109.414 14.1701 109.713 14.9061 109.713 15.8108ZM116.595 19.3758C115.031 19.3758 113.782 19.0768 112.846 18.4788C111.926 17.8654 111.466 16.9531 111.466 15.7418C111.466 14.6991 111.788 13.9018 112.432 13.3498C113.076 12.7824 114.035 12.4374 115.307 12.3148L118.389 11.9928V11.7168C118.389 11.1801 118.182 10.7968 117.768 10.5668C117.354 10.3368 116.779 10.2218 116.043 10.2218C115.461 10.2218 114.886 10.2908 114.318 10.4288C113.751 10.5668 113.245 10.7354 112.8 10.9348C112.616 10.7968 112.463 10.6051 112.34 10.3598C112.218 10.1144 112.156 9.85376 112.156 9.57776C112.156 8.93376 112.501 8.46609 113.191 8.17476C113.636 8.00609 114.15 7.87576 114.732 7.78376C115.33 7.69176 115.905 7.64576 116.457 7.64576C118.037 7.64576 119.302 7.98309 120.252 8.65776C121.203 9.31709 121.678 10.3444 121.678 11.7398V16.9608C121.678 17.3441 121.579 17.6584 121.379 17.9038C121.18 18.1338 120.935 18.3331 120.643 18.5018C120.183 18.7778 119.608 18.9924 118.918 19.1458C118.244 19.2991 117.469 19.3758 116.595 19.3758ZM116.595 16.8688C116.948 16.8688 117.293 16.8304 117.63 16.7538C117.983 16.6771 118.236 16.5928 118.389 16.5008V14.2928L116.434 14.4538C115.913 14.4998 115.499 14.6148 115.192 14.7988C114.901 14.9828 114.755 15.2588 114.755 15.6268C114.755 16.0101 114.901 16.3168 115.192 16.5468C115.484 16.7614 115.951 16.8688 116.595 16.8688ZM114.847 2.95376C115.277 2.95376 115.683 3.01509 116.066 3.13776C116.465 3.24509 116.833 3.36009 117.17 3.48276C117.508 3.59009 117.791 3.64376 118.021 3.64376C118.343 3.64376 118.589 3.55176 118.757 3.36776C118.926 3.16843 119.049 2.98443 119.125 2.81576H119.24C119.67 2.81576 120.045 2.96143 120.367 3.25276C120.689 3.54409 120.85 3.93509 120.85 4.42576C120.85 5.03909 120.651 5.50676 120.252 5.82876C119.854 6.13543 119.348 6.28876 118.734 6.28876C118.259 6.28876 117.83 6.22743 117.446 6.10476C117.063 5.98209 116.71 5.86709 116.388 5.75976C116.082 5.63709 115.798 5.57576 115.537 5.57576C115.215 5.57576 114.97 5.66776 114.801 5.85176C114.648 6.03576 114.525 6.21976 114.433 6.40376H114.364C113.92 6.40376 113.536 6.26576 113.214 5.98976C112.892 5.69843 112.731 5.30743 112.731 4.81676C112.731 4.38743 112.831 4.03476 113.03 3.75876C113.245 3.48276 113.513 3.28343 113.835 3.16076C114.173 3.02276 114.51 2.95376 114.847 2.95376ZM135.46 13.5108C135.46 14.7068 135.222 15.7494 134.747 16.6388C134.272 17.5128 133.597 18.1874 132.723 18.6628C131.849 19.1381 130.822 19.3758 129.641 19.3758C128.46 19.3758 127.433 19.1458 126.559 18.6858C125.685 18.2104 125.01 17.5358 124.535 16.6618C124.06 15.7724 123.822 14.7221 123.822 13.5108C123.822 12.3148 124.06 11.2798 124.535 10.4058C125.026 9.53176 125.708 8.85709 126.582 8.38176C127.471 7.89109 128.491 7.64576 129.641 7.64576C130.806 7.64576 131.826 7.89109 132.7 8.38176C133.574 8.85709 134.249 9.53943 134.724 10.4288C135.215 11.3028 135.46 12.3301 135.46 13.5108ZM129.641 10.3368C128.92 10.3368 128.345 10.6128 127.916 11.1648C127.502 11.7168 127.295 12.4988 127.295 13.5108C127.295 14.5381 127.502 15.3278 127.916 15.8798C128.33 16.4318 128.905 16.7078 129.641 16.7078C130.392 16.7078 130.967 16.4318 131.366 15.8798C131.78 15.3124 131.987 14.5228 131.987 13.5108C131.987 12.5141 131.78 11.7398 131.366 11.1878C130.952 10.6204 130.377 10.3368 129.641 10.3368ZM41.675 35.9588L45.056 36.0278V42.0078C44.918 42.0384 44.711 42.0768 44.435 42.1228C44.159 42.1688 43.86 42.1918 43.538 42.1918C42.894 42.1918 42.4187 42.0768 42.112 41.8468C41.8207 41.6168 41.675 41.2028 41.675 40.6048V35.9588ZM45.056 37.7758L41.675 37.7068V27.0578C41.813 27.0118 42.02 26.9658 42.296 26.9198C42.572 26.8738 42.871 26.8508 43.193 26.8508C43.8523 26.8508 44.3277 26.9658 44.619 27.1958C44.9103 27.4104 45.056 27.8244 45.056 28.4378V37.7758ZM52.402 42.3758C50.838 42.3758 49.5883 42.0768 48.653 41.4788C47.733 40.8654 47.273 39.9531 47.273 38.7418C47.273 37.6991 47.595 36.9018 48.239 36.3498C48.883 35.7824 49.8413 35.4374 51.114 35.3148L54.196 34.9928V34.7168C54.196 34.1801 53.989 33.7968 53.575 33.5668C53.161 33.3368 52.586 33.2218 51.85 33.2218C51.2673 33.2218 50.6923 33.2908 50.125 33.4288C49.5577 33.5668 49.0517 33.7354 48.607 33.9348C48.423 33.7968 48.2697 33.6051 48.147 33.3598C48.0243 33.1144 47.963 32.8538 47.963 32.5778C47.963 31.9338 48.308 31.4661 48.998 31.1748C49.4427 31.0061 49.9563 30.8758 50.539 30.7838C51.137 30.6918 51.712 30.6458 52.264 30.6458C53.8433 30.6458 55.1083 30.9831 56.059 31.6578C57.0097 32.3171 57.485 33.3444 57.485 34.7398V39.9608C57.485 40.3441 57.3853 40.6584 57.186 40.9038C56.9867 41.1338 56.7413 41.3331 56.45 41.5018C55.99 41.7778 55.415 41.9924 54.725 42.1458C54.0503 42.2991 53.276 42.3758 52.402 42.3758ZM52.402 39.8688C52.7547 39.8688 53.0997 39.8304 53.437 39.7538C53.7897 39.6771 54.0427 39.5928 54.196 39.5008V37.2928L52.241 37.4538C51.7197 37.4998 51.3057 37.6148 50.999 37.7988C50.7077 37.9828 50.562 38.2588 50.562 38.6268C50.562 39.0101 50.7077 39.3168 50.999 39.5468C51.2903 39.7614 51.758 39.8688 52.402 39.8688ZM70.6687 34.8778V37.0398H67.2877V34.9928C67.2877 34.4101 67.119 33.9884 66.7817 33.7278C66.4443 33.4671 66.0073 33.3368 65.4707 33.3368C65.0873 33.3368 64.7347 33.3828 64.4127 33.4748C64.0907 33.5668 63.7917 33.6818 63.5157 33.8198V37.0398H60.1347V33.4518C60.1347 33.0684 60.2113 32.7541 60.3647 32.5088C60.5333 32.2481 60.7787 32.0181 61.1007 31.8188C61.5913 31.4814 62.2123 31.2054 62.9637 30.9908C63.7303 30.7608 64.5737 30.6458 65.4937 30.6458C67.1497 30.6458 68.4223 31.0138 69.3117 31.7498C70.2163 32.4704 70.6687 33.5131 70.6687 34.8778ZM60.1347 35.9818H63.5157V42.0078C63.3777 42.0384 63.1707 42.0768 62.8947 42.1228C62.6187 42.1688 62.3197 42.1918 61.9977 42.1918C61.3537 42.1918 60.8783 42.0768 60.5717 41.8468C60.2803 41.6168 60.1347 41.2028 60.1347 40.6048V35.9818ZM67.2877 35.9818H70.6687V42.0078C70.5307 42.0384 70.3237 42.0768 70.0477 42.1228C69.7717 42.1688 69.4727 42.1918 69.1507 42.1918C68.5067 42.1918 68.0313 42.0768 67.7247 41.8468C67.4333 41.6168 67.2877 41.2028 67.2877 40.6048V35.9818ZM79.3212 33.3598C78.4778 33.3598 77.7572 33.6358 77.1592 34.1878C76.5765 34.7244 76.2852 35.5141 76.2852 36.5568C76.2852 37.5841 76.5688 38.3584 77.1362 38.8798C77.7035 39.4011 78.4242 39.6618 79.2982 39.6618C79.8042 39.6618 80.2412 39.6004 80.6092 39.4778C80.9925 39.3398 81.3222 39.2018 81.5982 39.0638C81.8588 39.2478 82.0582 39.4471 82.1962 39.6618C82.3342 39.8764 82.4032 40.1448 82.4032 40.4668C82.4032 41.0341 82.0965 41.4941 81.4832 41.8468C80.8698 42.1841 80.0188 42.3528 78.9302 42.3528C77.7188 42.3528 76.6532 42.1381 75.7332 41.7088C74.8132 41.2794 74.1002 40.6278 73.5942 39.7538C73.1035 38.8798 72.8582 37.8141 72.8582 36.5568C72.8582 35.2228 73.1265 34.1264 73.6632 33.2678C74.2152 32.3938 74.9435 31.7421 75.8482 31.3128C76.7682 30.8681 77.7648 30.6458 78.8382 30.6458C79.8962 30.6458 80.7242 30.8374 81.3222 31.2208C81.9355 31.6041 82.2422 32.0794 82.2422 32.6468C82.2422 32.9228 82.1732 33.1758 82.0352 33.4058C81.9125 33.6204 81.7668 33.8044 81.5982 33.9578C81.3068 33.8044 80.9695 33.6664 80.5862 33.5438C80.2182 33.4211 79.7965 33.3598 79.3212 33.3598ZM95.1297 37.3388H91.7487V35.2918C91.7487 34.5864 91.5647 34.0881 91.1967 33.7968C90.8287 33.4901 90.3687 33.3368 89.8167 33.3368C89.326 33.3368 88.8814 33.4288 88.4827 33.6128C88.0994 33.7968 87.762 34.0038 87.4707 34.2338L87.4017 31.4968C87.7544 31.2821 88.1914 31.0904 88.7127 30.9218C89.234 30.7378 89.809 30.6458 90.4377 30.6458C91.879 30.6458 93.0214 31.0214 93.8647 31.7728C94.708 32.5088 95.1297 33.6204 95.1297 35.1078V37.3388ZM84.5957 35.9588H87.9767V42.0078C87.8387 42.0384 87.6317 42.0768 87.3557 42.1228C87.0797 42.1688 86.7807 42.1918 86.4587 42.1918C85.8147 42.1918 85.3394 42.0768 85.0327 41.8468C84.7414 41.6168 84.5957 41.2028 84.5957 40.6048V35.9588ZM91.7487 35.9588H95.1297V42.0078C94.9917 42.0384 94.7847 42.0768 94.5087 42.1228C94.2327 42.1688 93.9337 42.1918 93.6117 42.1918C92.9677 42.1918 92.4924 42.0768 92.1857 41.8468C91.8944 41.6168 91.7487 41.2028 91.7487 40.6048V35.9588ZM87.9767 37.7068H84.5957V27.0578C84.7337 27.0118 84.9407 26.9658 85.2167 26.9198C85.4927 26.8738 85.7917 26.8508 86.1137 26.8508C86.773 26.8508 87.2484 26.9658 87.5397 27.1958C87.831 27.4104 87.9767 27.8244 87.9767 28.4378V37.7068ZM99.4111 38.1208L99.2731 35.8208L105 34.9238C104.954 34.4791 104.762 34.0804 104.425 33.7278C104.088 33.3598 103.589 33.1758 102.93 33.1758C102.225 33.1758 101.642 33.4134 101.182 33.8888C100.722 34.3488 100.484 35.0158 100.469 35.8898L100.561 37.4538C100.714 38.2971 101.082 38.9028 101.665 39.2708C102.248 39.6234 102.938 39.7998 103.735 39.7998C104.379 39.7998 104.985 39.7154 105.552 39.5468C106.119 39.3628 106.579 39.1634 106.932 38.9488C107.147 39.0868 107.331 39.2784 107.484 39.5238C107.637 39.7691 107.714 40.0298 107.714 40.3058C107.714 40.7658 107.53 41.1491 107.162 41.4558C106.809 41.7624 106.311 41.9924 105.667 42.1458C105.038 42.2991 104.318 42.3758 103.505 42.3758C102.324 42.3758 101.266 42.1534 100.331 41.7088C99.3958 41.2641 98.6598 40.5971 98.1231 39.7078C97.5864 38.8184 97.3181 37.7068 97.3181 36.3728C97.3181 35.3914 97.4714 34.5404 97.7781 33.8198C98.0848 33.0991 98.4988 32.5088 99.0201 32.0488C99.5568 31.5734 100.155 31.2208 100.814 30.9908C101.489 30.7608 102.186 30.6458 102.907 30.6458C103.965 30.6458 104.885 30.8604 105.667 31.2898C106.464 31.7038 107.085 32.2711 107.53 32.9918C107.975 33.7124 108.197 34.5481 108.197 35.4988C108.197 35.9741 108.067 36.3344 107.806 36.5798C107.545 36.8098 107.185 36.9631 106.725 37.0398L99.4111 38.1208ZM119.259 38.8108C119.259 39.9301 118.838 40.8118 117.994 41.4558C117.151 42.0844 115.924 42.3988 114.314 42.3988C113.057 42.3988 112.022 42.2148 111.209 41.8468C110.397 41.4634 109.99 40.9191 109.99 40.2138C109.99 39.8918 110.059 39.6158 110.197 39.3858C110.335 39.1404 110.512 38.9488 110.726 38.8108C111.156 39.0714 111.654 39.3014 112.221 39.5008C112.804 39.7001 113.463 39.7998 114.199 39.7998C115.334 39.7998 115.901 39.4778 115.901 38.8338C115.901 38.5578 115.794 38.3431 115.579 38.1898C115.38 38.0211 115.058 37.8908 114.613 37.7988L113.601 37.5688C112.39 37.3234 111.478 36.9324 110.864 36.3958C110.266 35.8438 109.967 35.0924 109.967 34.1418C109.967 33.0684 110.397 32.2174 111.255 31.5888C112.129 30.9601 113.302 30.6458 114.774 30.6458C115.51 30.6458 116.177 30.7224 116.775 30.8758C117.373 31.0138 117.849 31.2284 118.201 31.5198C118.554 31.8111 118.73 32.1791 118.73 32.6238C118.73 32.9151 118.669 33.1834 118.546 33.4288C118.424 33.6588 118.27 33.8428 118.086 33.9808C117.902 33.8734 117.642 33.7661 117.304 33.6588C116.967 33.5361 116.591 33.4364 116.177 33.3598C115.779 33.2678 115.403 33.2218 115.05 33.2218C114.498 33.2218 114.061 33.2984 113.739 33.4518C113.433 33.6051 113.279 33.8351 113.279 34.1418C113.279 34.3411 113.364 34.5174 113.532 34.6708C113.716 34.8088 114.038 34.9314 114.498 35.0388L115.418 35.2458C116.783 35.5678 117.764 36.0201 118.362 36.6028C118.96 37.1701 119.259 37.9061 119.259 38.8108Z" fill="black"/>
</svg>
